<svg width="1004" height="313" viewBox="0 0 1004 313" fill="none" xmlns="http://www.w3.org/2000/svg">
<path fill-rule="evenodd" clip-rule="evenodd" d="M0 10.9747C27.7411 7.96545 51.5986 23.0567 64.1108 51.6742C71.6138 68.8349 82.1644 82.6936 95.4702 92.8651C106.136 101.018 118.544 106.8 132.351 110.049C155.713 115.547 174.905 111.899 175.711 111.741L173.672 101.315C173.493 101.349 155.601 104.696 134.405 99.6177C106.439 92.9171 86.0656 75.3552 73.8527 47.4214C66.286 30.1148 54.6558 16.7202 40.2197 8.68507C27.9973 1.88188 14.1604 -0.990659 0 0.301605V10.9747Z" fill="#0F172A"/>
<path fill-rule="evenodd" clip-rule="evenodd" d="M1004 242.702C992.165 244.801 980.595 243.138 970.311 239.512C977.211 230.904 978.745 220.317 974.411 209.185C968.177 193.176 951.11 180.171 936.348 180.171H936.304C926.733 180.188 919.249 185.393 915.769 194.452C911.789 204.812 917.593 218.638 931.294 231.437C935.36 235.222 939.834 238.665 944.654 241.719C905.419 261.014 831.88 256.647 831.094 256.597L830 269.463C831.047 269.529 838.9 270 850.539 270C878.771 270 929.27 267.227 958.857 249.198C960.987 250.108 963.135 250.934 965.303 251.678C978.189 256.1 991.452 257.501 1004 255.805V242.702ZM936.351 193.072H936.335C935.048 193.074 932.036 193.079 929.948 198.514C928.167 203.152 931.285 212.423 942.264 222.681C946.652 226.744 951.585 230.341 956.96 233.395C963.305 226.558 962.446 218.935 960.251 213.298C955.813 201.9 943.765 193.072 936.351 193.072Z" fill="#61D094"/>
<path d="M800.328 305.618L800.993 304.441L809.121 302.551L810.191 304.688C810.191 304.688 786.783 311.276 786.078 309.575C785.853 309.032 785.667 308.722 785.664 308.43L800.328 305.618Z" fill="#CFF4D2" stroke="#359D9E" stroke-width="1.19242" stroke-linecap="round" stroke-linejoin="round"/>
<path d="M751.585 308.676L752.459 307.645L760.798 307.32L761.446 309.62C761.446 309.62 737.215 311.683 736.843 309.879C736.725 309.303 736.601 308.964 736.652 308.677L751.585 308.676Z" fill="#CFF4D2" stroke="#359D9E" stroke-width="1.19242" stroke-linecap="round" stroke-linejoin="round"/>
<path d="M751.585 308.676L736.652 308.677C736.763 308.066 735.735 307.375 739.237 305.463C741.136 304.427 745.085 304.475 746.525 303.453C748.031 302.368 749.311 301.001 750.296 299.428C750.296 299.428 753.387 303.417 755.201 302.73C757.014 302.042 759.142 301.433 759.142 301.433L760.798 307.32L752.458 307.645L751.585 308.676Z" fill="#9CFDCC" stroke="#359D9E" stroke-width="1.19242" stroke-linecap="round" stroke-linejoin="round"/>
<path d="M703.978 284.363C703.978 285.218 703.81 286.065 703.482 286.856C703.154 287.646 702.674 288.364 702.069 288.969C701.463 289.574 700.745 290.054 699.953 290.381C699.162 290.709 698.314 290.877 697.458 290.877H650.518C649.662 290.877 648.814 290.708 648.023 290.381C647.232 290.054 646.514 289.574 645.908 288.969C645.303 288.364 644.823 287.646 644.495 286.856C644.168 286.065 644 285.218 644 284.363V284.363C644 283.507 644.168 282.66 644.495 281.869C644.823 281.079 645.303 280.361 645.908 279.756C646.513 279.151 647.232 278.671 648.023 278.343C648.814 278.016 649.662 277.847 650.518 277.848H697.458C698.315 277.847 699.162 278.016 699.954 278.343C700.745 278.67 701.463 279.15 702.069 279.755C702.674 280.36 703.155 281.079 703.482 281.869C703.81 282.66 703.978 283.507 703.978 284.363Z" fill="white" stroke="#359D9E" stroke-width="1.19242" stroke-linecap="round" stroke-linejoin="round"/>
<path d="M703.978 246.839C703.978 247.694 703.81 248.541 703.482 249.332C703.155 250.122 702.674 250.841 702.069 251.446C701.463 252.051 700.745 252.53 699.953 252.858C699.162 253.185 698.315 253.353 697.458 253.353H650.518C649.662 253.353 648.814 253.185 648.023 252.858C647.232 252.53 646.514 252.05 645.908 251.445C645.303 250.841 644.823 250.122 644.495 249.332C644.168 248.541 644 247.694 644 246.839V246.839C644 245.983 644.168 245.136 644.495 244.346C644.823 243.555 645.303 242.837 645.908 242.232C646.514 241.627 647.232 241.147 648.023 240.82C648.814 240.493 649.662 240.325 650.518 240.325H697.458C698.314 240.325 699.162 240.493 699.953 240.82C700.745 241.147 701.463 241.627 702.069 242.232C702.674 242.837 703.155 243.555 703.482 244.345C703.81 245.136 703.978 245.983 703.978 246.839V246.839Z" fill="white" stroke="#359D9E" stroke-width="1.19242" stroke-linecap="round" stroke-linejoin="round"/>
<path d="M672.47 251.769H672.47H649.934H649.934C649.549 251.769 649.168 251.694 648.812 251.547C648.457 251.399 648.133 251.184 647.861 250.911C647.589 250.639 647.373 250.316 647.226 249.961C647.079 249.606 647.003 249.225 647.003 248.84L646.805 248.84L647.003 248.84C647.003 248.455 647.079 248.074 647.226 247.719C647.373 247.364 647.589 247.041 647.861 246.769C648.134 246.497 648.457 246.281 648.812 246.134C649.168 245.987 649.549 245.911 649.934 245.911H649.934L672.47 245.911L672.47 245.911C672.855 245.911 673.236 245.987 673.592 246.134C673.947 246.281 674.271 246.497 674.543 246.769C674.815 247.041 675.031 247.364 675.178 247.719C675.325 248.074 675.401 248.455 675.401 248.84L675.6 248.84L675.401 248.84C675.401 249.225 675.325 249.606 675.178 249.961C675.031 250.316 674.815 250.639 674.543 250.911C674.271 251.183 673.948 251.399 673.592 251.546C673.236 251.694 672.855 251.769 672.47 251.769Z" fill="#20B2AA" stroke="#359D9E" stroke-width="0.397473"/>
<path d="M673.548 288.873H673.548H651.012H651.012C650.627 288.873 650.246 288.797 649.89 288.65C649.534 288.503 649.211 288.287 648.939 288.015C648.667 287.743 648.451 287.42 648.304 287.064C648.156 286.709 648.081 286.328 648.081 285.944L647.882 285.943L648.081 285.943C648.081 285.559 648.157 285.178 648.304 284.822C648.451 284.467 648.667 284.144 648.939 283.872C649.211 283.6 649.534 283.385 649.89 283.237C650.246 283.09 650.627 283.015 651.012 283.015H651.012L673.548 283.015L673.548 283.015C673.933 283.015 674.314 283.09 674.67 283.238C675.025 283.385 675.349 283.6 675.621 283.872C675.893 284.144 676.109 284.467 676.256 284.823C676.403 285.178 676.479 285.559 676.479 285.943V285.943C676.479 286.328 676.403 286.709 676.256 287.064C676.109 287.42 675.893 287.743 675.621 288.015C675.349 288.287 675.025 288.503 674.67 288.65C674.314 288.797 673.933 288.873 673.548 288.873Z" fill="#20B2AA" stroke="#359D9E" stroke-width="0.397473"/>
<path d="M803.015 289.604L806.713 297.455L799.279 299.572L795.851 291.605" fill="white"/>
<path d="M803.015 289.604L806.713 297.455L799.279 299.572L795.851 291.605" stroke="#359D9E" stroke-width="1.19242" stroke-linecap="round" stroke-linejoin="round"/>
<path d="M756.563 294.569L758.642 302.843L751.324 304.729L751.016 295.223" fill="white"/>
<path d="M756.563 294.569L758.642 302.843L751.324 304.729L751.016 295.223" stroke="#359D9E" stroke-width="1.19242" stroke-linecap="round" stroke-linejoin="round"/>
<path d="M764.218 196.208C764.218 196.208 774.207 202.218 777.021 210.653C779.835 219.088 782.79 256.061 787.432 262.23C792.075 268.398 807.214 288.564 807.214 288.564L795.62 295.223C795.62 295.223 778.287 271.561 774.207 264.707C770.127 257.855 763.374 226.926 763.374 226.926C763.374 226.926 754.652 250.856 754.23 260.697C753.807 270.538 760.838 297.07 760.838 297.07L749.167 297.416C749.167 297.416 741.849 272.471 741.145 259.572C740.442 246.675 749.445 208.718 749.445 208.718" fill="#047E90"/>
<path d="M726.493 217.816C728.567 211.289 729.57 203.674 727.709 195.716C722.433 173.152 715.892 183.907 715.892 190.023C715.892 190.023 718.06 202.794 716.894 215.646C718.631 216.887 721.622 218.137 726.493 217.816Z" fill="#9CFDCC" stroke="#359D9E" stroke-width="1.19242" stroke-linecap="round" stroke-linejoin="round"/>
<path d="M716.894 215.646C716.17 223.618 714.165 231.621 709.56 236.626L715.258 238.102C715.258 238.102 722.684 229.795 726.492 217.816C721.622 218.137 718.63 216.887 716.894 215.646Z" fill="white" stroke="#359D9E" stroke-width="1.19242" stroke-linecap="round" stroke-linejoin="round"/>
<path d="M714.624 189.811C714.624 189.811 716.735 177.58 729.608 179.267C742.481 180.955 764.218 196.138 764.218 196.138C764.218 196.138 756.62 211.743 750.289 211.954C743.958 212.164 714.624 199.723 714.624 190.655" fill="#047E90"/>
<path d="M710.404 237.153L707.977 241.476L702.912 245.694L714.202 246.432L713.147 243.058L714.414 237.997" fill="#CFF4D2"/>
<path d="M710.404 237.153L707.977 241.476L702.912 245.694L714.202 246.432L713.147 243.058L714.414 237.997" stroke="#359D9E" stroke-width="1.19242" stroke-linecap="round" stroke-linejoin="round"/>
<path d="M729.08 201.356C729.08 201.356 723.699 192.483 725.81 187.281C727.92 182.08 729.934 181.737 729.934 181.737C729.934 181.737 720.639 177.792 718.739 185.699C716.84 193.607 723.646 198.985 723.646 198.985L729.08 201.356Z" fill="#9CFDCC"/>
<path d="M731.402 199.336C731.402 199.336 723.488 182.502 736.502 183.766C747.358 184.822 753.461 196.118 751.632 199.001C749.802 201.883 731.402 199.336 731.402 199.336Z" fill="#9CFDCC"/>
<path d="M800.328 305.618L785.664 308.43C785.658 307.809 784.517 307.325 787.596 304.788C789.266 303.412 793.153 302.716 794.374 301.441C795.648 300.091 796.649 298.508 797.32 296.778C797.32 296.778 801.107 300.114 802.758 299.097C804.41 298.08 806.386 297.083 806.386 297.083L809.121 302.551L800.993 304.441L800.328 305.618Z" fill="#9CFDCC" stroke="#359D9E" stroke-width="1.19242" stroke-linecap="round" stroke-linejoin="round"/>
<path d="M717.896 183.485L723.014 183.696C723.014 183.696 724.819 185.938 724.438 188.362C724.068 190.708 722.565 191.973 720.956 192.157C719.347 192.342 718.318 188.81 718.318 188.81" fill="white"/>
<path d="M717.896 183.485L723.014 183.696C723.014 183.696 724.819 185.938 724.438 188.362C724.068 190.708 722.565 191.973 720.956 192.157C719.347 192.342 718.318 188.81 718.318 188.81" stroke="#359D9E" stroke-width="1.19242" stroke-linecap="round" stroke-linejoin="round"/>
<path d="M708.505 188.687C708.505 188.687 714.976 201.621 717.79 197.966C720.604 194.31 719.689 183.907 719.689 183.907C719.689 183.907 714.133 183.064 708.505 188.687Z" fill="white" stroke="#359D9E" stroke-width="1.19242" stroke-linecap="round" stroke-linejoin="round"/>
<path d="M715.609 187.703L717.79 188.863C717.79 188.863 717.298 187.633 718.037 187.316C718.775 187 720.287 187.914 719.901 189.46L721.378 187.141L719.654 182.748" fill="#359D9E"/>
<path d="M719.9 182.783C719.9 182.783 719.549 176.421 713.323 177.265C709.698 177.755 702.314 184.048 707.801 189.531C707.801 189.531 716.665 191.358 719.9 182.783Z" fill="#047E90"/>
<path d="M746.069 211.18C746.069 211.18 764.781 206.681 763.866 196.208L767.876 199.09C767.876 199.09 766.575 205.017 762.398 208.276C758.556 211.275 753.327 212.895 748.953 212.656L746.069 211.18Z" fill="white" stroke="#359D9E" stroke-width="1.19242" stroke-linecap="round" stroke-linejoin="round"/>
<path d="M714.446 212.124L713.337 217.712L728.276 220.671L729.385 215.084L714.446 212.124Z" fill="#9CFDCC" stroke="#038A9C" stroke-width="1.19242" stroke-linecap="round" stroke-linejoin="round"/>
<path d="M692.595 217.608C689.805 217.587 687.034 218.076 684.421 219.053C684.385 219.052 684.349 219.048 684.313 219.048C682.717 219.048 681.188 220.039 679.775 221.85C678.51 223.033 677.675 224.401 677.405 225.874C673.727 233.816 671.28 247.912 671.28 263.98C671.28 288.794 677.115 308.911 684.313 308.911C684.99 308.911 690.352 309.216 692.595 309.216C701.039 309.216 707.885 305.048 707.885 299.909V226.917C707.885 221.776 701.039 217.608 692.595 217.608Z" fill="white" stroke="#359D9E" stroke-width="1.19242" stroke-linecap="round" stroke-linejoin="round"/>
<path d="M714.726 263.98C714.726 288.794 708.89 308.91 701.692 308.91C694.494 308.91 688.658 288.794 688.658 263.98C688.658 239.164 694.494 219.048 701.692 219.048C708.89 219.048 714.726 239.164 714.726 263.98Z" fill="#2EB8A5" stroke="#359D9E" stroke-width="1.19242" stroke-miterlimit="10"/>
<path d="M772.998 263.557C772.998 260.93 774.043 258.412 775.901 256.555C777.76 254.698 780.28 253.655 782.909 253.655H829.848C832.476 253.655 834.997 254.698 836.856 256.555C838.714 258.412 839.758 260.93 839.759 263.557C839.758 266.183 838.714 268.702 836.856 270.559C834.997 272.416 832.476 273.459 829.848 273.459H782.909C780.28 273.459 777.76 272.416 775.901 270.559C774.043 268.702 772.998 266.183 772.998 263.557V263.557Z" fill="white" stroke="#359D9E" stroke-width="1.19242" stroke-linecap="round" stroke-linejoin="round"/>
<path d="M825.239 264.096H825.239H784.688H784.687V263.898C783.051 263.9 781.45 263.431 780.075 262.55L825.239 264.096ZM825.239 264.096C827.449 264.095 829.577 263.259 831.196 261.756C832.73 260.331 833.699 258.407 833.934 256.336M825.239 264.096L833.934 256.336M833.934 256.336C835.279 257.328 836.297 258.701 836.854 260.281C837.448 261.967 837.486 263.8 836.961 265.509C836.436 267.218 835.376 268.714 833.937 269.777C832.498 270.84 830.755 271.413 828.966 271.413H788.415C786.197 271.413 784.07 270.533 782.501 268.965C780.933 267.398 780.051 265.273 780.051 263.057L833.934 256.336ZM780.051 263.057C780.051 262.963 780.055 262.869 780.06 262.775L780.051 263.057Z" fill="#4EC79A" stroke="#2FB9A5" stroke-width="0.397473"/>
<path d="M752.136 259.909C752.136 257.479 752.615 255.073 753.545 252.828C754.476 250.583 755.839 248.543 757.559 246.825C759.278 245.107 761.32 243.744 763.566 242.814C765.813 241.885 768.22 241.406 770.652 241.406V241.406C773.084 241.406 775.491 241.885 777.738 242.814C779.985 243.744 782.026 245.107 783.745 246.825C785.464 248.543 786.828 250.583 787.758 252.828C788.689 255.073 789.167 257.479 789.167 259.909V267.204C789.167 269.634 788.689 272.04 787.759 274.285C786.828 276.53 785.465 278.57 783.745 280.288C782.026 282.006 779.985 283.369 777.738 284.299C775.492 285.229 773.084 285.707 770.652 285.707V285.707C768.22 285.707 765.813 285.228 763.566 284.299C761.319 283.369 759.278 282.006 757.559 280.288C755.839 278.57 754.475 276.53 753.545 274.285C752.615 272.04 752.136 269.634 752.136 267.204V259.909Z" fill="white" stroke="#359D9E" stroke-width="1.19242" stroke-linecap="round" stroke-linejoin="round"/>
<path d="M761.443 251.027C761.441 248.974 761.814 246.939 762.542 245.023C760.246 246.45 758.333 248.421 756.975 250.764C755.519 253.277 754.753 256.129 754.753 259.032L754.753 259.032V265.618C754.754 269.428 756.074 273.121 758.489 276.07C760.904 279.018 764.266 281.041 768.004 281.795C771.742 282.548 775.626 281.986 778.997 280.204C782.194 278.513 784.743 275.823 786.259 272.553C786.305 272.454 786.35 272.355 786.394 272.255C783.933 273.608 781.168 274.317 778.356 274.313L778.356 274.512C778.356 274.512 778.356 274.512 778.356 274.512C776.135 274.512 773.935 274.075 771.883 273.226C769.831 272.377 767.967 271.132 766.396 269.563C764.826 267.993 763.58 266.13 762.73 264.079C761.88 262.029 761.443 259.831 761.443 257.612H761.642L761.443 257.612V251.027ZM761.443 251.027V251.026H761.642L761.443 251.027Z" fill="#4EC79A" stroke="#2FB9A5" stroke-width="0.397473"/>
<path d="M749.529 228.638H712.499C709.551 228.636 706.636 229.261 703.949 230.47C696.937 245.572 693.701 279.288 703.95 296.643C706.638 297.852 709.552 298.476 712.499 298.474H749.529C752.269 298.474 754.982 297.935 757.513 296.888C760.044 295.84 762.344 294.305 764.281 292.369C766.219 290.434 767.755 288.136 768.804 285.606C769.852 283.077 770.392 280.366 770.392 277.629V249.484C770.392 246.747 769.852 244.036 768.804 241.507C767.755 238.978 766.219 236.679 764.281 234.744C762.344 232.808 760.044 231.272 757.513 230.225C754.982 229.177 752.269 228.638 749.529 228.638V228.638Z" fill="white" stroke="#359D9E" stroke-width="1.19242" stroke-linecap="round" stroke-linejoin="round"/>
<path d="M718.649 232.684C716.651 240.277 715.483 249.766 715.751 258.976C716.021 268.283 717.758 277.329 721.606 283.845L721.638 283.9L721.696 283.925C724.136 285.023 726.783 285.59 729.459 285.588M718.649 232.684L729.459 285.588H729.459M718.649 232.684H713.744H713.744C711.147 232.682 708.58 233.227 706.209 234.282C703.089 241.041 700.804 251.945 700.443 263.112C700.081 274.292 701.649 285.694 706.201 293.443C708.574 294.5 711.144 295.046 713.743 295.044H713.744H747.021H747.021C750.376 295.045 753.667 294.137 756.546 292.417C759.325 290.756 761.618 288.399 763.201 285.581C763.047 285.585 762.892 285.588 762.736 285.588H729.459M718.649 232.684L729.459 285.588" fill="#2EB8A5" stroke="#359D9E" stroke-width="0.397473"/>
<path d="M741.563 215.489C742.38 210.631 742.703 199.776 741.124 194.451C736.792 179.843 730.385 188.875 730.385 194.271C730.385 194.271 731.098 204.531 730.622 215.907C734.273 216.199 737.945 216.059 741.563 215.489V215.489Z" fill="#9CFDCC" stroke="#359D9E" stroke-width="1.19242" stroke-linecap="round" stroke-linejoin="round"/>
<path d="M730.622 215.907C730.237 225.105 729.046 236.032 723.668 241.877L727.751 243.032C727.751 243.032 738.969 230.9 741.563 215.489C737.945 216.059 734.272 216.199 730.622 215.907V215.907Z" fill="white" stroke="#359D9E" stroke-width="1.19242" stroke-linecap="round" stroke-linejoin="round"/>
<path d="M743.466 214.858H728.059V221.325H743.466V214.858Z" fill="#9CFDCC" stroke="#038A9C" stroke-width="1.19242" stroke-linecap="round" stroke-linejoin="round"/>
<path d="M728.563 241.716L724.135 239.996C723.904 240.034 723.679 240.101 723.464 240.196C723.134 240.347 723.253 241.423 723.253 241.423C723.253 241.423 720.585 243.303 719.324 245.324C718.064 247.346 715.466 248.778 716.494 249.23C717.523 249.684 718.339 247.835 718.762 248.266C718.975 248.483 718.359 250.228 717.384 251.777C716.408 253.327 715.074 254.678 715.861 254.84C717.436 255.167 720.418 250.143 720.418 250.143C720.418 250.143 719.819 251.911 719.074 253.711C718.276 255.643 717.355 257.628 718.277 257.99C719.073 258.302 719.786 256.518 720.725 254.834C721.355 253.73 722.047 252.664 722.798 251.64C722.798 251.64 720.796 257.647 721.684 257.303C722.573 256.959 724.236 251.572 724.608 251.726C724.98 251.88 723.951 255.706 724.601 255.625C725.251 255.543 727.251 249.064 727.251 249.064C727.251 249.064 728.952 245.479 728.237 243.201C728.237 243.201 729.324 242.337 728.563 241.716Z" fill="#047E90"/>
<path d="M777.386 205.642C777.55 205.897 777.662 206.182 777.715 206.481C777.769 206.779 777.763 207.085 777.698 207.382C777.633 207.678 777.51 207.958 777.336 208.207C777.163 208.456 776.942 208.668 776.686 208.832L771.431 212.194C771.176 212.357 770.89 212.469 770.592 212.522C770.293 212.575 769.986 212.569 769.69 212.504C769.393 212.439 769.113 212.317 768.864 212.143C768.615 211.97 768.402 211.749 768.239 211.494L761.385 200.797C761.222 200.542 761.11 200.256 761.057 199.958C761.003 199.659 761.009 199.353 761.074 199.057C761.139 198.761 761.262 198.48 761.435 198.232C761.609 197.983 761.83 197.77 762.085 197.607L767.341 194.245C767.596 194.081 767.881 193.97 768.18 193.917C768.479 193.863 768.785 193.869 769.082 193.934C769.378 193.999 769.659 194.122 769.908 194.295C770.157 194.469 770.369 194.689 770.533 194.945L777.386 205.642Z" fill="#9CFDCC" stroke="#2AB7A6" stroke-width="1.19242" stroke-linecap="round" stroke-linejoin="round"/>
<path d="M764.027 204.385C764.027 204.385 770.651 204.123 773.452 199.179Z" fill="#3EC0A0"/>
<path d="M764.027 204.385C764.027 204.385 770.651 204.123 773.452 199.179" stroke="#2FB9A5" stroke-width="1.19242" stroke-linecap="round" stroke-linejoin="round"/>
<path d="M761.247 164.304C761.247 165.263 761.058 166.213 760.691 167.099C760.324 167.985 759.785 168.79 759.106 169.469C758.428 170.147 757.622 170.685 756.735 171.052C755.848 171.419 754.898 171.608 753.938 171.608H729.573C727.634 171.608 725.775 170.838 724.404 169.468C723.034 168.099 722.264 166.241 722.264 164.304V164.304C722.264 162.367 723.034 160.509 724.404 159.139C725.775 157.77 727.634 157 729.573 157H753.938C754.898 157 755.848 157.189 756.735 157.556C757.622 157.923 758.428 158.461 759.106 159.139C759.785 159.817 760.324 160.623 760.691 161.509C761.058 162.395 761.247 163.345 761.247 164.304V164.304Z" fill="#39BEA2"/>
<path d="M730.927 164.304H722.264V171.578H730.927V164.304Z" fill="#39BEA2"/>
<path d="M735.8 164.063C735.8 164.277 735.736 164.486 735.617 164.664C735.498 164.842 735.329 164.981 735.131 165.063C734.933 165.145 734.716 165.166 734.505 165.124C734.295 165.083 734.102 164.98 733.951 164.828C733.8 164.677 733.696 164.484 733.655 164.274C733.613 164.064 733.634 163.847 733.716 163.649C733.798 163.451 733.937 163.282 734.115 163.163C734.293 163.044 734.503 162.981 734.717 162.981C734.859 162.981 735 163.009 735.131 163.063C735.263 163.118 735.382 163.197 735.483 163.298C735.583 163.398 735.663 163.518 735.717 163.649C735.772 163.78 735.8 163.921 735.8 164.063V164.063Z" fill="white"/>
<path d="M742.839 164.063C742.839 164.277 742.775 164.486 742.656 164.664C742.537 164.842 742.368 164.981 742.17 165.063C741.972 165.145 741.755 165.166 741.544 165.124C741.334 165.083 741.141 164.98 740.99 164.828C740.839 164.677 740.735 164.484 740.694 164.274C740.652 164.064 740.673 163.847 740.755 163.649C740.837 163.451 740.976 163.282 741.154 163.163C741.332 163.044 741.542 162.981 741.756 162.981C741.898 162.981 742.039 163.009 742.17 163.063C742.302 163.118 742.421 163.197 742.522 163.298C742.622 163.398 742.702 163.518 742.756 163.649C742.811 163.78 742.839 163.921 742.839 164.063Z" fill="white"/>
<path d="M749.877 164.063C749.877 164.277 749.814 164.486 749.695 164.664C749.576 164.842 749.406 164.981 749.209 165.063C749.011 165.145 748.793 165.166 748.583 165.124C748.373 165.082 748.18 164.979 748.028 164.828C747.877 164.677 747.774 164.484 747.732 164.274C747.69 164.064 747.712 163.846 747.794 163.649C747.876 163.451 748.015 163.282 748.193 163.163C748.371 163.044 748.58 162.981 748.795 162.981C748.937 162.981 749.077 163.009 749.209 163.063C749.34 163.118 749.46 163.197 749.56 163.298C749.661 163.398 749.74 163.518 749.795 163.649C749.849 163.78 749.877 163.921 749.877 164.063V164.063Z" fill="white"/>
<path d="M288.251 304.704L287.53 303.803L280.413 303.324L279.806 305.274C279.806 305.274 300.454 307.617 300.814 306.085C300.93 305.596 301.044 305.31 301.006 305.063L288.251 304.704Z" fill="#CFF4D2" stroke="#359D9E" stroke-width="1.19242" stroke-linecap="round" stroke-linejoin="round"/>
<path d="M288.251 304.704L301.007 305.063C300.927 304.538 301.822 303.972 298.876 302.256C297.278 301.325 293.905 301.272 292.7 300.364C291.439 299.401 290.378 298.203 289.574 296.835C289.574 296.835 286.839 300.169 285.306 299.539C283.773 298.907 281.97 298.337 281.97 298.337L280.414 303.324L287.53 303.803L288.251 304.704Z" fill="#23B3A9" stroke="#05788B" stroke-width="1.19242" stroke-linecap="round" stroke-linejoin="round"/>
<path d="M263.307 310.023L262.621 309.095L255.529 308.34L254.845 310.265C254.845 310.265 275.387 313.408 275.806 311.89C275.941 311.406 276.067 311.124 276.039 310.876L263.307 310.023Z" fill="#CFF4D2" stroke="#359D9E" stroke-width="1.19242" stroke-linecap="round" stroke-linejoin="round"/>
<path d="M263.307 310.023L276.039 310.876C275.979 310.349 276.896 309.819 274.019 307.989C272.458 306.996 269.089 306.812 267.921 305.859C266.699 304.847 265.684 303.608 264.934 302.211C264.934 302.211 262.072 305.436 260.564 304.747C259.058 304.057 257.278 303.417 257.278 303.417L255.529 308.34L262.621 309.095L263.307 310.023Z" fill="#23B3A9" stroke="#05788B" stroke-width="1.19242" stroke-linecap="round" stroke-linejoin="round"/>
<path d="M268.001 294.577L264.766 304.392L257.432 304.192L259.855 296.021" fill="white"/>
<path d="M268.001 294.577L264.766 304.392L257.432 304.192L259.855 296.021" stroke="#359D9E" stroke-width="1.19242" stroke-linecap="round" stroke-linejoin="round"/>
<path d="M295.675 146.172L291.219 146.544C292.302 155.641 288.435 162.36 283.365 167.162L288.279 174.891C297.099 163.24 295.675 146.172 295.675 146.172Z" fill="white" stroke="#359D9E" stroke-width="1.19242" stroke-linecap="round" stroke-linejoin="round"/>
<path d="M265.044 177.364L269.164 185.273C278.303 184.257 284.321 180.119 288.279 174.891L283.365 167.162C275.611 174.506 265.044 177.364 265.044 177.364Z" fill="#23B3A9" stroke="#05788B" stroke-width="1.19242" stroke-linecap="round" stroke-linejoin="round"/>
<path d="M295.612 148.165L291.481 148.094C291.307 147.987 291.147 147.859 291.006 147.712C290.789 147.481 291.24 146.655 291.24 146.655C291.24 146.655 289.711 144.264 289.363 142.222C289.014 140.18 287.396 138.173 288.372 138.147C289.349 138.12 289.396 139.877 289.879 139.668C290.121 139.564 290.201 137.956 289.926 136.388C289.652 134.821 289.022 133.294 289.71 133.422C291.085 133.678 291.83 138.702 291.83 138.702C291.83 138.702 291.931 137.083 291.924 135.388C291.917 133.57 291.831 131.669 292.693 131.681C293.436 131.691 293.423 133.363 293.624 135.027C293.767 136.122 293.973 137.209 294.24 138.28C294.24 138.28 294.607 132.786 295.209 133.355C295.811 133.924 295.376 138.809 295.725 138.807C296.076 138.805 296.507 135.386 297.003 135.666C297.5 135.945 296.975 141.82 296.975 141.82C296.975 141.82 297.164 145.264 295.839 146.863C295.839 146.863 296.429 147.915 295.612 148.165Z" fill="#0F172A"/>
<path d="M285.802 164.687L281.394 167.442L287.593 177.346L292.001 174.591L285.802 164.687Z" fill="#23B3A9" stroke="#05788B" stroke-width="1.19242" stroke-linecap="round" stroke-linejoin="round"/>
<path d="M228.675 107.253C228.675 109.879 227.631 112.398 225.773 114.255C223.915 116.112 221.395 117.155 218.767 117.155H171.827C169.199 117.155 166.678 116.112 164.82 114.255C162.961 112.398 161.917 109.88 161.917 107.253V107.253C161.917 104.627 162.961 102.109 164.82 100.252C166.678 98.3948 169.198 97.3514 171.827 97.3512H218.767C221.395 97.3516 223.915 98.3951 225.773 100.252C227.631 102.109 228.675 104.627 228.675 107.253V107.253Z" fill="white" stroke="#0F172A" stroke-width="1.19242" stroke-linecap="round" stroke-linejoin="round"/>
<path d="M215.758 109.268H173.273C171.246 109.267 169.279 108.58 167.693 107.319C166.107 106.058 164.996 104.297 164.54 102.324C163.804 103.689 163.435 105.222 163.469 106.773C163.503 108.323 163.94 109.838 164.735 111.17C165.531 112.502 166.659 113.604 168.008 114.37C169.358 115.136 170.884 115.539 172.436 115.539H214.921C216.272 115.543 217.605 115.241 218.822 114.656C220.039 114.071 221.108 113.218 221.948 112.162C222.788 111.105 223.378 109.873 223.673 108.556C223.968 107.239 223.961 105.873 223.653 104.559C222.885 105.983 221.745 107.173 220.355 108.002C218.965 108.831 217.377 109.268 215.758 109.268V109.268Z" fill="#00A3B5" stroke="#00A3B5" stroke-width="1.19242" stroke-miterlimit="10"/>
<path d="M249.538 110.9C249.538 113.33 249.06 115.736 248.13 117.981C247.199 120.226 245.835 122.266 244.116 123.984C242.397 125.702 240.355 127.065 238.109 127.995C235.862 128.924 233.454 129.403 231.023 129.403V129.403C228.591 129.403 226.183 128.924 223.937 127.995C221.69 127.065 219.649 125.702 217.93 123.984C216.21 122.266 214.846 120.226 213.916 117.981C212.986 115.736 212.507 113.33 212.508 110.9V103.605C212.507 101.175 212.986 98.7693 213.916 96.5244C214.847 94.2796 216.211 92.2399 217.93 90.5218C219.649 88.8037 221.69 87.4408 223.937 86.511C226.183 85.5813 228.591 85.1028 231.023 85.103V85.103C233.454 85.1028 235.862 85.5813 238.109 86.511C240.355 87.4408 242.396 88.8036 244.116 90.5217C245.835 92.2398 247.199 94.2795 248.129 96.5244C249.06 98.7692 249.538 101.175 249.538 103.605V110.9Z" fill="white" stroke="#0F172A" stroke-width="1.19242" stroke-linecap="round" stroke-linejoin="round"/>
<path d="M236.569 119.671C239.656 119.676 242.678 118.817 245.295 117.196C243.833 120.4 241.361 123.046 238.249 124.723C234.946 126.504 231.126 127.083 227.442 126.361C223.759 125.638 220.441 123.66 218.056 120.763C215.672 117.867 214.368 114.233 214.368 110.482L214.368 104.023L214.368 104.023C214.366 101.374 215.016 98.7646 216.26 96.4251C217.402 94.2772 219.014 92.4171 220.972 90.9809L236.569 119.671ZM236.569 119.671C234.39 119.671 232.233 119.243 230.22 118.41C228.207 117.576 226.378 116.355 224.837 114.816C223.297 113.276 222.075 111.449 221.241 109.437C220.408 107.426 219.979 105.27 219.979 103.092C219.979 103.092 219.979 103.092 219.979 103.092V96.6336L236.569 119.671Z" fill="#0295A7" stroke="#359D9E" stroke-width="0.397473"/>
<path d="M310.039 121.324C310.039 124.062 309.5 126.773 308.451 129.302C307.403 131.832 305.866 134.13 303.929 136.066C301.991 138.002 299.692 139.537 297.16 140.585C294.629 141.632 291.916 142.171 289.176 142.171H252.146C249.406 142.171 246.693 141.632 244.162 140.584C241.631 139.537 239.331 138.001 237.394 136.065C235.456 134.13 233.92 131.831 232.871 129.302C231.823 126.773 231.284 124.062 231.284 121.324V93.1811C231.284 90.4436 231.823 87.7328 232.872 85.2036C233.92 82.6744 235.457 80.3763 237.394 78.4405C239.331 76.5048 241.631 74.9693 244.162 73.9217C246.693 72.8741 249.406 72.335 252.146 72.3351H289.176C291.916 72.3348 294.629 72.8738 297.16 73.9214C299.691 74.9689 301.991 76.5043 303.929 78.4401C305.866 80.3759 307.403 82.674 308.451 85.2033C309.5 87.7326 310.039 90.4435 310.039 93.1811V121.324Z" fill="white" stroke="#0F3847" stroke-width="1.19242" stroke-linecap="round" stroke-linejoin="round"/>
<path d="M243.361 77.6349C242.581 79.7761 242.182 82.0387 242.183 84.3201M243.361 77.6349L296.191 130.053H296.191H261.773C259.2 130.053 256.653 129.547 254.276 128.563C251.899 127.58 249.74 126.138 247.92 124.32C246.101 122.502 244.658 120.344 243.674 117.969C242.69 115.594 242.183 113.049 242.183 110.478V84.3201M243.361 77.6349C240.409 79.2382 237.926 81.59 236.166 84.4578C234.316 87.4739 233.336 90.943 233.336 94.4811V120.639C233.336 123.158 233.833 125.652 234.797 127.978C235.761 130.305 237.175 132.419 238.957 134.2C240.739 135.981 242.855 137.393 245.183 138.357C247.512 139.321 250.008 139.816 252.528 139.816H286.946C290.798 139.816 294.561 138.658 297.746 136.492C300.786 134.424 303.164 131.53 304.603 128.156M242.183 84.3201V84.32H242.382L242.183 84.3201Z" fill="#0EAAB0" stroke="#359D9E" stroke-width="0.397473"/>
<path d="M313.264 58.5238C310.296 58.5011 307.348 59.0219 304.568 60.0603C304.53 60.0595 304.492 60.0555 304.454 60.0555C302.755 60.0555 301.128 61.1099 299.625 63.0365C298.28 64.2948 297.392 65.7507 297.105 67.3177C293.191 75.7671 290.588 90.7625 290.588 107.856C290.588 134.256 296.796 155.657 304.454 155.657C305.194 155.649 305.921 155.459 306.57 155.103C308.752 155.694 311.004 155.989 313.264 155.982C322.247 155.982 329.531 151.548 329.531 146.08V68.4269C329.531 62.9579 322.247 58.5238 313.264 58.5238Z" fill="white" stroke="#0F172A" stroke-width="1.19242" stroke-linecap="round" stroke-linejoin="round"/>
<path d="M278.773 120.122V120.122V89.8945C278.774 89.6257 278.881 89.3681 279.071 89.178C279.262 88.9879 279.52 88.8807 279.789 88.88C280.058 88.8799 280.317 88.9867 280.508 89.1769C280.699 89.3671 280.807 89.6252 280.808 89.8945V120.122C280.808 120.392 280.7 120.651 280.509 120.842C280.318 121.033 280.059 121.14 279.789 121.14C279.519 121.139 279.261 121.032 279.07 120.841C278.88 120.65 278.773 120.391 278.773 120.122Z" fill="#00A3B5" stroke="#359D9E" stroke-width="0.397473"/>
<path d="M269.991 120.122V120.122V89.8945C269.992 89.6257 270.099 89.3681 270.289 89.178C270.48 88.9879 270.738 88.8807 271.007 88.88C271.276 88.8799 271.535 88.9867 271.726 89.1769C271.917 89.3671 272.025 89.6251 272.026 89.8945V120.122C272.026 120.392 271.918 120.651 271.727 120.842C271.536 121.033 271.277 121.14 271.007 121.14C270.737 121.139 270.479 121.032 270.288 120.841C270.098 120.65 269.991 120.391 269.991 120.122Z" fill="#00A3B5" stroke="#359D9E" stroke-width="0.397473"/>
<path d="M336.408 107.856C336.408 121.029 334.858 132.94 332.362 141.545C331.114 145.85 329.634 149.305 328.009 151.674C326.375 154.056 324.656 155.257 322.942 155.257C321.227 155.257 319.508 154.056 317.874 151.674C316.249 149.305 314.77 145.85 313.521 141.545C311.025 132.94 309.476 121.029 309.476 107.856C309.476 94.6831 311.025 82.7721 313.521 74.1674C314.77 69.8623 316.249 66.4075 317.874 64.0381C319.508 61.656 321.227 60.4555 322.942 60.4555C324.656 60.4555 326.375 61.656 328.009 64.0382C329.634 66.4075 331.114 69.8623 332.362 74.1674C334.858 82.7721 336.408 94.6831 336.408 107.856Z" fill="#2DB8A6" stroke="#094C5F" stroke-width="0.8"/>
<path d="M319.712 115.431C319.712 115.921 319.517 116.391 319.17 116.738C318.824 117.084 318.353 117.279 317.863 117.279V117.279C317.62 117.279 317.38 117.231 317.155 117.138C316.931 117.045 316.727 116.909 316.556 116.738C316.384 116.566 316.248 116.362 316.155 116.138C316.062 115.914 316.014 115.674 316.014 115.431V99.2661C316.014 99.0234 316.062 98.7832 316.155 98.559C316.248 98.3349 316.384 98.1312 316.556 97.9597C316.727 97.7881 316.931 97.652 317.155 97.5592C317.38 97.4663 317.62 97.4186 317.863 97.4186C318.353 97.4186 318.824 97.6132 319.17 97.9597C319.517 98.3062 319.712 98.7761 319.712 99.2661V115.431Z" fill="#0F172A"/>
<path d="M330.112 109.196C330.112 109.686 329.917 110.156 329.57 110.502C329.223 110.849 328.753 111.043 328.263 111.044V111.044C327.773 111.043 327.302 110.849 326.956 110.502C326.609 110.156 326.414 109.686 326.414 109.196V93.0307C326.414 92.5407 326.609 92.0708 326.956 91.7244C327.302 91.3779 327.773 91.1833 328.263 91.1832V91.1832C328.753 91.1832 329.224 91.3779 329.57 91.7243C329.917 92.0708 330.112 92.5407 330.112 93.0307V109.196Z" fill="#0F172A"/>
<path d="M291.459 290.305L290.015 298.676L282.041 299.947L283.833 291.749" fill="white"/>
<path d="M291.459 290.305L290.015 298.676L282.041 299.947L283.833 291.749" stroke="#359D9E" stroke-width="1.19242" stroke-linecap="round" stroke-linejoin="round"/>
<path d="M255.066 173.28C255.066 173.28 243.044 175.082 244.006 186.734C244.332 190.686 251.099 224.816 251.099 224.816L282.658 221.814C282.658 221.814 274.182 178.325 268.772 174.721C263.362 171.117 255.066 173.28 255.066 173.28Z" fill="#0F172A"/>
<path d="M251.099 224.816C251.099 224.816 252.622 234.459 256.028 243.557C261.159 257.264 265.556 264.075 264.323 274.236C262.477 289.457 256.677 298.042 256.677 298.042L270.024 300.177C270.024 300.177 278.344 272.235 277.111 268.232C274.948 249.491 272.951 220.506 272.951 220.506L251.099 224.816Z" fill="#0F172A"/>
<path d="M280.493 217.068C280.493 217.068 296.419 240.287 297.14 256.685C297.728 270.05 292.441 294.115 292.441 294.115L281.293 293.764C281.293 293.764 285.277 263.151 282.812 255.761C275.599 242.787 264.785 226.972 264.785 226.972L280.493 217.068Z" fill="#0F172A"/>
<path d="M251.82 178.235C251.82 178.235 259.934 175.802 263 184.091C266.066 192.381 263.355 198.209 258.427 199.098C248.145 200.954 240.819 179.497 251.82 178.235Z" fill="#23B3A9"/>
<path d="M258.898 177.252C260.763 178.076 262.442 179.658 263.755 180.895C263.891 181.023 264.023 181.147 264.15 181.266L264.157 181.273L264.164 181.28C264.986 182.217 265.726 183.224 266.376 184.289L266.378 184.292L266.378 184.292C267.13 185.576 267.782 186.916 268.328 188.301C268.421 188.242 268.541 188.165 268.681 188.073C269.013 187.855 269.452 187.556 269.882 187.232C270.313 186.905 270.727 186.559 271.015 186.245C271.159 186.088 271.264 185.947 271.325 185.827L258.898 177.252ZM258.898 177.252C258.154 176.907 257.38 176.631 256.585 176.429C255.831 176.236 255.492 175.778 255.475 175.399C255.459 175.037 255.736 174.619 256.497 174.489L256.509 174.487L256.521 174.484C257.314 174.243 258.142 174.133 258.971 174.158L258.971 174.158C259.814 174.183 260.652 174.309 261.466 174.534L261.466 174.534L261.479 174.537C262.333 174.71 263.164 174.981 263.956 175.344C264.736 175.711 265.482 176.146 266.185 176.643L266.185 176.644L266.196 176.651C266.358 176.75 266.668 177.05 267.079 177.547C267.482 178.035 267.967 178.695 268.477 179.491C269.497 181.083 270.612 183.213 271.377 185.599L258.898 177.252ZM266.206 184.392L266.206 184.392L266.206 184.392Z" fill="#23B3A9" stroke="#0D2D40" stroke-width="0.397473"/>
<path d="M255.362 158.797L254.133 166.734L248.568 161.628L246.592 157.686L248.815 155.587C248.815 155.587 257.214 148.799 258.574 147.256C259.932 145.713 264.378 154.343 260.549 157.923" fill="#0F172A"/>
<path d="M253.202 165.351L253.894 175.081C253.894 175.081 257.365 176.839 259.349 176.568C260.522 176.413 261.59 175.815 262.335 174.896L259.123 165.411L253.202 165.351Z" fill="white" stroke="#359D9E" stroke-width="1.19242" stroke-linecap="round" stroke-linejoin="round"/>
<path d="M259.797 156.075L253.846 158.423C253.846 158.423 254.466 161.131 254.337 161.445C254.336 161.445 252.637 162.471 252.636 162.472C251.809 163.045 251.729 164.357 252.457 165.406C253.184 166.454 254.443 166.84 255.269 166.267C255.457 166.135 255.611 165.96 255.72 165.757C257.432 167.489 258.664 168.281 260.928 168.281C265.22 168.281 259.797 156.075 259.797 156.075Z" fill="white" stroke="#359D9E" stroke-width="0.794946" stroke-linecap="round" stroke-linejoin="round"/>
<path d="M275.624 145.914H272.198C272.596 153.626 268.555 160.754 263.922 166.383L269.998 171.428C275.842 159.08 275.624 145.914 275.624 145.914Z" fill="white" stroke="#359D9E" stroke-width="1.19242" stroke-linecap="round" stroke-linejoin="round"/>
<path d="M250.706 178.523C249.894 179.482 249.19 180.527 248.606 181.64C247.491 183.737 247.491 186.626 249.295 187.707C255.066 191.672 260.476 185.197 263.966 180.986C264.687 180.111 265.36 179.227 265.993 178.294C266.626 177.361 267.218 176.45 267.773 175.479C268.182 174.808 268.568 174.229 268.933 173.546C269.31 172.845 269.663 172.138 269.998 171.428L263.922 166.383C263.838 166.484 252.541 176.523 250.706 178.523Z" fill="#23B3A9" stroke="#05788B" stroke-width="1.19242" stroke-linecap="round" stroke-linejoin="round"/>
<path d="M264.916 162.513L261.59 166.506L270.576 173.979L273.902 169.985L264.916 162.513Z" fill="#23B3A9" stroke="#05788B" stroke-width="1.19242" stroke-linecap="round" stroke-linejoin="round"/>
<path d="M279.321 213.52C279.321 213.52 260.055 218.839 249.701 217.563L250.457 226.818C250.457 226.818 270.465 221.902 279.831 217.008C279.997 216.921 279.84 216.482 279.84 216.482L279.321 213.52Z" fill="white" stroke="#359D9E" stroke-width="1.19242" stroke-linecap="round" stroke-linejoin="round"/>
<path d="M276.143 147.466L271.945 147.28C271.771 147.166 271.613 147.032 271.473 146.878C271.259 146.638 271.74 145.81 271.74 145.81C271.74 145.81 270.252 143.336 269.953 141.25C269.655 139.165 268.065 137.079 269.059 137.079C270.053 137.079 270.053 138.867 270.55 138.668C270.798 138.569 270.924 136.937 270.688 135.335C270.452 133.733 269.854 132.163 270.55 132.313C271.941 132.61 272.56 137.74 272.56 137.74C272.56 137.74 272.707 136.095 272.747 134.373C272.791 132.524 272.755 130.588 273.631 130.625C274.387 130.655 274.327 132.354 274.485 134.053C274.6 135.17 274.78 136.28 275.022 137.377C275.022 137.377 275.547 131.8 276.143 132.396C276.74 132.991 276.162 137.946 276.518 137.953C276.874 137.961 277.407 134.497 277.904 134.795C278.402 135.093 277.706 141.051 277.706 141.051C277.706 141.051 277.802 144.559 276.411 146.148C276.411 146.148 276.981 147.235 276.143 147.466Z" fill="#0F172A"/>
<path d="M270.579 193.771C271.021 194.922 270.994 196.003 270.518 196.186C270.041 196.369 269.296 195.585 268.853 194.434C268.41 193.283 268.438 192.201 268.915 192.018C269.39 191.836 270.136 192.62 270.579 193.771Z" fill="white"/>
<path d="M274.507 191.385C274.95 192.536 274.923 193.617 274.446 193.8C273.97 193.983 273.224 193.199 272.781 192.048C272.339 190.897 272.366 189.816 272.843 189.632C273.319 189.45 274.064 190.234 274.507 191.385Z" fill="white"/>
<path d="M249.379 216.503H257.082C257.695 216.503 258.283 216.747 258.716 217.18C259.15 217.613 259.393 218.2 259.393 218.813V234.362C259.393 234.974 259.15 235.562 258.717 235.995C258.283 236.428 257.695 236.671 257.082 236.671H249.378C248.765 236.671 248.178 236.428 247.744 235.995C247.311 235.562 247.067 234.974 247.067 234.362V218.813C247.067 218.2 247.311 217.613 247.744 217.18C248.178 216.747 248.766 216.503 249.379 216.503Z" fill="#23B3A9" stroke="#05788B" stroke-width="1.19242" stroke-linecap="round" stroke-linejoin="round"/>
<path d="M230.371 147.313H194.933C189.061 147.313 184.301 152.733 184.301 159.418C184.301 166.104 189.061 171.524 194.933 171.524H230.371C230.687 171.524 231 171.505 231.31 171.474H241.002V159.418C241.002 152.733 236.242 147.313 230.371 147.313Z" fill="#076375"/>
<path d="M202.99 161.666H201.726L201.2 164.882H199.638L200.164 161.666H198.421V160.23H200.399L200.745 158.159H199.009V156.724H200.98L201.522 153.461H203.076L202.542 156.724H203.806L204.348 153.461H205.91L205.369 156.724H207.182V158.159H205.133L204.787 160.23H206.585V161.666H204.552L204.026 164.882H202.464L202.99 161.666ZM201.961 160.23H203.225L203.571 158.159H202.307L201.961 160.23Z" fill="white"/>
<path d="M213.819 161.666H212.555L212.029 164.882H210.466L210.992 161.666H209.25V160.23H211.228L211.573 158.159H209.838V156.724H211.809L212.35 153.461H213.905L213.371 156.724H214.635L215.177 153.461H216.739L216.197 156.724H218.011V158.159H215.962L215.616 160.23H217.414V161.666H215.381L214.855 164.882H213.292L213.819 161.666ZM212.79 160.23H214.054L214.399 158.159H213.135L212.79 160.23Z" fill="white"/>
<path d="M224.647 161.666H223.383L222.857 164.882H221.295L221.821 161.666H220.078V160.23H222.057L222.402 158.159H220.667V156.724H222.637L223.179 153.461H224.733L224.2 156.724H225.463L226.005 153.461H227.567L227.026 156.724H228.839V158.159H226.79L226.445 160.23H228.243V161.666H226.209L225.683 164.882H224.121L224.647 161.666ZM223.618 160.23H224.883L225.228 158.159H223.964L223.618 160.23Z" fill="white"/>
</svg>
